<mxfile host="app.diagrams.net" agent="Mozilla/5.0 (Windows NT 10.0; Win64; x64) AppleWebKit/537.36 (KHTML, like Gecko) Chrome/129.0.0.0 Safari/537.36" version="24.7.17">
  <diagram name="Страница — 1" id="fiFzarRcPJfgJuOxno2N">
    <mxGraphModel dx="1085" dy="580" grid="1" gridSize="10" guides="0" tooltips="1" connect="0" arrows="0" fold="1" page="1" pageScale="1" pageWidth="827" pageHeight="1169" math="0" shadow="0">
      <root>
        <mxCell id="0" />
        <mxCell id="1" parent="0" />
        <mxCell id="0yMn6RcTjmXR4WvA116v-39" value="" style="rounded=1;whiteSpace=wrap;html=1;rotation=90;" vertex="1" parent="1">
          <mxGeometry x="140" y="100" width="245.72" height="148.32" as="geometry" />
        </mxCell>
        <mxCell id="0yMn6RcTjmXR4WvA116v-1" value="" style="rounded=1;whiteSpace=wrap;html=1;rotation=90;" vertex="1" parent="1">
          <mxGeometry x="-30" y="100" width="245.72" height="148.32" as="geometry" />
        </mxCell>
        <mxCell id="0yMn6RcTjmXR4WvA116v-2" value="Настройки" style="rounded=1;whiteSpace=wrap;html=1;arcSize=50;fillColor=default;strokeColor=none;" vertex="1" parent="1">
          <mxGeometry x="35.36" y="60" width="115" height="30" as="geometry" />
        </mxCell>
        <mxCell id="0yMn6RcTjmXR4WvA116v-3" value="Язык" style="rounded=1;whiteSpace=wrap;html=1;" vertex="1" parent="1">
          <mxGeometry x="42.86" y="120" width="95.17" height="30" as="geometry" />
        </mxCell>
        <mxCell id="0yMn6RcTjmXR4WvA116v-4" value="Валюта" style="rounded=1;whiteSpace=wrap;html=1;arcSize=0;" vertex="1" parent="1">
          <mxGeometry x="42.86" y="170" width="95" height="30" as="geometry" />
        </mxCell>
        <mxCell id="0yMn6RcTjmXR4WvA116v-8" value="" style="triangle;whiteSpace=wrap;html=1;" vertex="1" parent="1">
          <mxGeometry x="150.35999999999999" y="130" width="10" height="10" as="geometry" />
        </mxCell>
        <mxCell id="0yMn6RcTjmXR4WvA116v-10" value="" style="triangle;whiteSpace=wrap;html=1;" vertex="1" parent="1">
          <mxGeometry x="150.35999999999999" y="180" width="10" height="10" as="geometry" />
        </mxCell>
        <mxCell id="0yMn6RcTjmXR4WvA116v-17" value="" style="endArrow=none;html=1;rounded=0;entryX=0.817;entryY=0.007;entryDx=0;entryDy=0;entryPerimeter=0;" edge="1" parent="1" target="0yMn6RcTjmXR4WvA116v-1">
          <mxGeometry width="50" height="50" relative="1" as="geometry">
            <mxPoint x="18.03" y="252" as="sourcePoint" />
            <mxPoint x="158.03" y="250" as="targetPoint" />
          </mxGeometry>
        </mxCell>
        <mxCell id="0yMn6RcTjmXR4WvA116v-29" value="" style="html=1;verticalLabelPosition=bottom;align=center;labelBackgroundColor=#ffffff;verticalAlign=top;strokeWidth=2;strokeColor=#0080F0;shadow=0;dashed=0;shape=mxgraph.ios7.icons.heart;" vertex="1" parent="1">
          <mxGeometry x="78.03" y="260" width="30.599999999999998" height="27.3" as="geometry" />
        </mxCell>
        <mxCell id="0yMn6RcTjmXR4WvA116v-30" value="" style="html=1;verticalLabelPosition=bottom;align=center;labelBackgroundColor=#ffffff;verticalAlign=top;strokeWidth=2;strokeColor=#0080F0;shadow=0;dashed=0;shape=mxgraph.ios7.icons.looking_glass;" vertex="1" parent="1">
          <mxGeometry x="28.03" y="260" width="30" height="30" as="geometry" />
        </mxCell>
        <mxCell id="0yMn6RcTjmXR4WvA116v-31" value="" style="html=1;verticalLabelPosition=bottom;align=center;labelBackgroundColor=#ffffff;verticalAlign=top;strokeWidth=2;strokeColor=#0080F0;shadow=0;dashed=0;shape=mxgraph.ios7.icons.user;" vertex="1" parent="1">
          <mxGeometry x="128.03" y="260" width="30" height="30" as="geometry" />
        </mxCell>
        <mxCell id="0yMn6RcTjmXR4WvA116v-40" value="Валюта" style="rounded=1;whiteSpace=wrap;html=1;arcSize=50;fillColor=default;strokeColor=none;" vertex="1" parent="1">
          <mxGeometry x="205.36" y="60" width="115" height="30" as="geometry" />
        </mxCell>
        <mxCell id="0yMn6RcTjmXR4WvA116v-41" value="&amp;nbsp; &amp;nbsp; &amp;nbsp;Euro" style="rounded=1;whiteSpace=wrap;html=1;strokeColor=none;fillColor=none;" vertex="1" parent="1">
          <mxGeometry x="176" y="120" width="77.14" height="20" as="geometry" />
        </mxCell>
        <mxCell id="0yMn6RcTjmXR4WvA116v-42" value="U.S. Dollar" style="rounded=1;whiteSpace=wrap;html=1;strokeColor=none;" vertex="1" parent="1">
          <mxGeometry x="199.86" y="142" width="77.14" height="20" as="geometry" />
        </mxCell>
        <mxCell id="0yMn6RcTjmXR4WvA116v-45" value="" style="endArrow=none;html=1;rounded=0;entryX=0.817;entryY=0.007;entryDx=0;entryDy=0;entryPerimeter=0;" edge="1" parent="1" target="0yMn6RcTjmXR4WvA116v-39">
          <mxGeometry width="50" height="50" relative="1" as="geometry">
            <mxPoint x="188.03" y="252" as="sourcePoint" />
            <mxPoint x="328.03" y="250" as="targetPoint" />
          </mxGeometry>
        </mxCell>
        <mxCell id="0yMn6RcTjmXR4WvA116v-46" value="" style="html=1;verticalLabelPosition=bottom;align=center;labelBackgroundColor=#ffffff;verticalAlign=top;strokeWidth=2;strokeColor=#0080F0;shadow=0;dashed=0;shape=mxgraph.ios7.icons.heart;" vertex="1" parent="1">
          <mxGeometry x="248.02999999999997" y="260" width="30.599999999999998" height="27.3" as="geometry" />
        </mxCell>
        <mxCell id="0yMn6RcTjmXR4WvA116v-47" value="" style="html=1;verticalLabelPosition=bottom;align=center;labelBackgroundColor=#ffffff;verticalAlign=top;strokeWidth=2;strokeColor=#0080F0;shadow=0;dashed=0;shape=mxgraph.ios7.icons.looking_glass;" vertex="1" parent="1">
          <mxGeometry x="198.03" y="260" width="30" height="30" as="geometry" />
        </mxCell>
        <mxCell id="0yMn6RcTjmXR4WvA116v-48" value="" style="html=1;verticalLabelPosition=bottom;align=center;labelBackgroundColor=#ffffff;verticalAlign=top;strokeWidth=2;strokeColor=#0080F0;shadow=0;dashed=0;shape=mxgraph.ios7.icons.user;" vertex="1" parent="1">
          <mxGeometry x="298.03" y="260" width="30" height="30" as="geometry" />
        </mxCell>
        <mxCell id="0yMn6RcTjmXR4WvA116v-52" value="" style="shape=rect;fillColor=#e0e0e0;strokeColor=none;" vertex="1" parent="1">
          <mxGeometry x="200" y="90" width="130" height="20" as="geometry" />
        </mxCell>
        <mxCell id="0yMn6RcTjmXR4WvA116v-53" value="" style="html=1;strokeWidth=1;shadow=0;dashed=0;shape=mxgraph.ios7ui.marginRect;rx=3;ry=3;rectMargin=5;strokeColor=none;" vertex="1" parent="0yMn6RcTjmXR4WvA116v-52">
          <mxGeometry width="130" height="20" as="geometry" />
        </mxCell>
        <mxCell id="0yMn6RcTjmXR4WvA116v-54" value="Search" style="shape=mxgraph.ios7.icons.looking_glass;strokeColor=#e0e0e0;fillColor=none;fontColor=#e0e0e0;labelPosition=right;verticalLabelPosition=middle;align=left;verticalAlign=middle;fontSize=6;fontStyle=0;spacingTop=2;sketch=0;html=1;" vertex="1" parent="0yMn6RcTjmXR4WvA116v-52">
          <mxGeometry x="0.5" y="0.5" width="6" height="6" relative="1" as="geometry">
            <mxPoint x="-17" y="-3" as="offset" />
          </mxGeometry>
        </mxCell>
        <mxCell id="0yMn6RcTjmXR4WvA116v-96" value="&lt;span style=&quot;font-size: 10px;&quot;&gt;&lt;b&gt;Поиск валюты&lt;/b&gt;&lt;/span&gt;" style="rounded=1;whiteSpace=wrap;html=1;fontSize=10;" vertex="1" parent="0yMn6RcTjmXR4WvA116v-52">
          <mxGeometry width="130" height="20" as="geometry" />
        </mxCell>
        <mxCell id="0yMn6RcTjmXR4WvA116v-98" value="" style="html=1;verticalLabelPosition=bottom;align=center;labelBackgroundColor=#ffffff;verticalAlign=top;strokeWidth=2;strokeColor=#0080F0;shadow=0;dashed=0;shape=mxgraph.ios7.icons.looking_glass;" vertex="1" parent="0yMn6RcTjmXR4WvA116v-52">
          <mxGeometry x="9" y="4" width="11.97" height="10" as="geometry" />
        </mxCell>
        <mxCell id="0yMn6RcTjmXR4WvA116v-55" value="" style="html=1;verticalLabelPosition=bottom;labelBackgroundColor=#ffffff;verticalAlign=top;shadow=0;dashed=0;strokeWidth=2;shape=mxgraph.ios7.misc.scroll_(vertical);fillColor=#a0a0a0;" vertex="1" parent="1">
          <mxGeometry x="320" y="140" width="6" height="50" as="geometry" />
        </mxCell>
        <mxCell id="0yMn6RcTjmXR4WvA116v-56" value="Russian Ruble" style="rounded=1;whiteSpace=wrap;html=1;strokeColor=none;fontColor=#000000;fillColor=none;" vertex="1" parent="1">
          <mxGeometry x="205" y="210" width="90" height="20" as="geometry" />
        </mxCell>
        <mxCell id="0yMn6RcTjmXR4WvA116v-57" value="&amp;nbsp;Pound Sterling" style="rounded=1;whiteSpace=wrap;html=1;strokeColor=none;" vertex="1" parent="1">
          <mxGeometry x="197" y="164" width="100" height="20" as="geometry" />
        </mxCell>
        <mxCell id="0yMn6RcTjmXR4WvA116v-58" value="Korean Won&amp;nbsp; &amp;nbsp;" style="rounded=1;whiteSpace=wrap;html=1;strokeColor=none;" vertex="1" parent="1">
          <mxGeometry x="199" y="186" width="100" height="20" as="geometry" />
        </mxCell>
        <mxCell id="0yMn6RcTjmXR4WvA116v-59" value="" style="rounded=1;whiteSpace=wrap;html=1;rotation=90;" vertex="1" parent="1">
          <mxGeometry x="650" y="200" width="245.72" height="148.32" as="geometry" />
        </mxCell>
        <mxCell id="0yMn6RcTjmXR4WvA116v-61" value="Поиск жилья" style="rounded=1;whiteSpace=wrap;html=1;arcSize=50;fillColor=default;strokeColor=none;" vertex="1" parent="1">
          <mxGeometry x="715.36" y="160" width="115" height="30" as="geometry" />
        </mxCell>
        <mxCell id="0yMn6RcTjmXR4WvA116v-64" value="" style="endArrow=none;html=1;rounded=0;entryX=0.817;entryY=0.007;entryDx=0;entryDy=0;entryPerimeter=0;" edge="1" parent="1" target="0yMn6RcTjmXR4WvA116v-59">
          <mxGeometry width="50" height="50" relative="1" as="geometry">
            <mxPoint x="698.03" y="352" as="sourcePoint" />
            <mxPoint x="838.03" y="350" as="targetPoint" />
          </mxGeometry>
        </mxCell>
        <mxCell id="0yMn6RcTjmXR4WvA116v-65" value="" style="html=1;verticalLabelPosition=bottom;align=center;labelBackgroundColor=#ffffff;verticalAlign=top;strokeWidth=2;strokeColor=#0080F0;shadow=0;dashed=0;shape=mxgraph.ios7.icons.heart;" vertex="1" parent="1">
          <mxGeometry x="758.03" y="360" width="30.599999999999998" height="27.3" as="geometry" />
        </mxCell>
        <mxCell id="0yMn6RcTjmXR4WvA116v-66" value="" style="html=1;verticalLabelPosition=bottom;align=center;labelBackgroundColor=#ffffff;verticalAlign=top;strokeWidth=2;strokeColor=#0080F0;shadow=0;dashed=0;shape=mxgraph.ios7.icons.looking_glass;" vertex="1" parent="1">
          <mxGeometry x="708.03" y="360" width="30" height="30" as="geometry" />
        </mxCell>
        <mxCell id="0yMn6RcTjmXR4WvA116v-67" value="" style="html=1;verticalLabelPosition=bottom;align=center;labelBackgroundColor=#ffffff;verticalAlign=top;strokeWidth=2;strokeColor=#0080F0;shadow=0;dashed=0;shape=mxgraph.ios7.icons.user;" vertex="1" parent="1">
          <mxGeometry x="808.03" y="360" width="30" height="30" as="geometry" />
        </mxCell>
        <mxCell id="0yMn6RcTjmXR4WvA116v-76" value="Алматы&amp;nbsp; &amp;nbsp; &amp;nbsp; &amp;nbsp; &amp;nbsp;&amp;nbsp;" style="rounded=1;whiteSpace=wrap;html=1;align=center;fontSize=11;" vertex="1" parent="1">
          <mxGeometry x="713" y="200" width="120" height="20" as="geometry" />
        </mxCell>
        <mxCell id="0yMn6RcTjmXR4WvA116v-77" value="&amp;nbsp; &amp;nbsp; &amp;nbsp; &lt;span style=&quot;background-color: initial; font-size: 11px;&quot;&gt;13 нояб - 16 нояб&amp;nbsp; &amp;nbsp;&lt;/span&gt;" style="rounded=1;whiteSpace=wrap;html=1;align=center;fontSize=11;" vertex="1" parent="1">
          <mxGeometry x="713" y="220" width="120" height="20" as="geometry" />
        </mxCell>
        <mxCell id="0yMn6RcTjmXR4WvA116v-78" value="&lt;font style=&quot;font-size: 11px;&quot;&gt;2 взрослых&amp;nbsp; &amp;nbsp; &amp;nbsp;&amp;nbsp;&lt;/font&gt;" style="rounded=1;whiteSpace=wrap;html=1;" vertex="1" parent="1">
          <mxGeometry x="713" y="240" width="120" height="20" as="geometry" />
        </mxCell>
        <mxCell id="0yMn6RcTjmXR4WvA116v-79" value="" style="html=1;verticalLabelPosition=bottom;align=center;labelBackgroundColor=#ffffff;verticalAlign=top;strokeWidth=2;strokeColor=#0080F0;shadow=0;dashed=0;shape=mxgraph.ios7.icons.looking_glass;" vertex="1" parent="1">
          <mxGeometry x="718.03" y="203" width="11.97" height="10" as="geometry" />
        </mxCell>
        <mxCell id="0yMn6RcTjmXR4WvA116v-80" value="" style="html=1;verticalLabelPosition=bottom;align=center;labelBackgroundColor=#ffffff;verticalAlign=top;strokeWidth=2;strokeColor=#0080F0;shadow=0;dashed=0;shape=mxgraph.ios7.icons.user;" vertex="1" parent="1">
          <mxGeometry x="717" y="242" width="14" height="16" as="geometry" />
        </mxCell>
        <mxCell id="0yMn6RcTjmXR4WvA116v-81" value="" style="html=1;verticalLabelPosition=bottom;align=center;labelBackgroundColor=#ffffff;verticalAlign=top;strokeWidth=2;strokeColor=#0080F0;shadow=0;dashed=0;shape=mxgraph.ios7.icons.calendar;" vertex="1" parent="1">
          <mxGeometry x="719" y="225" width="10" height="10" as="geometry" />
        </mxCell>
        <mxCell id="0yMn6RcTjmXR4WvA116v-82" value="&lt;span style=&quot;font-size: 11px;&quot;&gt;Найти&lt;/span&gt;" style="rounded=1;whiteSpace=wrap;html=1;fontColor=#FFFFFF;labelBackgroundColor=none;fillColor=#3D8BFF;" vertex="1" parent="1">
          <mxGeometry x="713" y="260" width="120" height="20" as="geometry" />
        </mxCell>
        <mxCell id="0yMn6RcTjmXR4WvA116v-83" value="" style="rounded=1;whiteSpace=wrap;html=1;rotation=90;" vertex="1" parent="1">
          <mxGeometry x="830" y="200" width="245.72" height="148.32" as="geometry" />
        </mxCell>
        <mxCell id="0yMn6RcTjmXR4WvA116v-84" value="Результаты поиска" style="rounded=1;whiteSpace=wrap;html=1;arcSize=50;fillColor=default;strokeColor=none;" vertex="1" parent="1">
          <mxGeometry x="895.36" y="160" width="115" height="30" as="geometry" />
        </mxCell>
        <mxCell id="0yMn6RcTjmXR4WvA116v-85" value="" style="endArrow=none;html=1;rounded=0;entryX=0.817;entryY=0.007;entryDx=0;entryDy=0;entryPerimeter=0;" edge="1" parent="1" target="0yMn6RcTjmXR4WvA116v-83">
          <mxGeometry width="50" height="50" relative="1" as="geometry">
            <mxPoint x="878.03" y="352" as="sourcePoint" />
            <mxPoint x="1018.03" y="350" as="targetPoint" />
          </mxGeometry>
        </mxCell>
        <mxCell id="0yMn6RcTjmXR4WvA116v-86" value="" style="html=1;verticalLabelPosition=bottom;align=center;labelBackgroundColor=#ffffff;verticalAlign=top;strokeWidth=2;strokeColor=#0080F0;shadow=0;dashed=0;shape=mxgraph.ios7.icons.heart;" vertex="1" parent="1">
          <mxGeometry x="938.03" y="360" width="30.599999999999998" height="27.3" as="geometry" />
        </mxCell>
        <mxCell id="0yMn6RcTjmXR4WvA116v-87" value="" style="html=1;verticalLabelPosition=bottom;align=center;labelBackgroundColor=#ffffff;verticalAlign=top;strokeWidth=2;strokeColor=#0080F0;shadow=0;dashed=0;shape=mxgraph.ios7.icons.looking_glass;" vertex="1" parent="1">
          <mxGeometry x="888.03" y="360" width="30" height="30" as="geometry" />
        </mxCell>
        <mxCell id="0yMn6RcTjmXR4WvA116v-88" value="" style="html=1;verticalLabelPosition=bottom;align=center;labelBackgroundColor=#ffffff;verticalAlign=top;strokeWidth=2;strokeColor=#0080F0;shadow=0;dashed=0;shape=mxgraph.ios7.icons.user;" vertex="1" parent="1">
          <mxGeometry x="988.03" y="360" width="30" height="30" as="geometry" />
        </mxCell>
        <mxCell id="0yMn6RcTjmXR4WvA116v-99" value="image" style="rounded=1;whiteSpace=wrap;html=1;" vertex="1" parent="1">
          <mxGeometry x="887" y="190" width="60" height="60" as="geometry" />
        </mxCell>
        <mxCell id="0yMn6RcTjmXR4WvA116v-100" value="image" style="rounded=1;whiteSpace=wrap;html=1;" vertex="1" parent="1">
          <mxGeometry x="888" y="260" width="60" height="60" as="geometry" />
        </mxCell>
        <mxCell id="0yMn6RcTjmXR4WvA116v-103" value="" style="html=1;verticalLabelPosition=bottom;labelBackgroundColor=#ffffff;verticalAlign=top;shadow=0;dashed=0;strokeWidth=2;shape=mxgraph.ios7.misc.scroll_(vertical);fillColor=#a0a0a0;" vertex="1" parent="1">
          <mxGeometry x="1010" y="190" width="6" height="50" as="geometry" />
        </mxCell>
        <mxCell id="0yMn6RcTjmXR4WvA116v-104" value="&lt;font size=&quot;1&quot; style=&quot;&quot;&gt;&lt;b style=&quot;font-size: 7px;&quot;&gt;Жилье № 1&amp;nbsp; &amp;nbsp;&amp;nbsp;&lt;/b&gt;&lt;/font&gt;&lt;div style=&quot;&quot;&gt;&lt;font style=&quot;font-size: 6px;&quot;&gt;&amp;nbsp;7 км от центра&lt;/font&gt;&lt;/div&gt;&lt;div style=&quot;&quot;&gt;&lt;font style=&quot;font-size: 6px;&quot;&gt;3 ночи:&lt;/font&gt;&lt;/div&gt;&lt;div style=&quot;&quot;&gt;&lt;font style=&quot;font-size: 6px;&quot;&gt;&lt;br&gt;&lt;/font&gt;&lt;/div&gt;" style="rounded=1;whiteSpace=wrap;html=1;align=left;strokeColor=none;arcSize=29;" vertex="1" parent="1">
          <mxGeometry x="953" y="191" width="50" height="50" as="geometry" />
        </mxCell>
        <mxCell id="0yMn6RcTjmXR4WvA116v-101" value="" style="html=1;verticalLabelPosition=bottom;align=center;labelBackgroundColor=#ffffff;verticalAlign=top;strokeWidth=1;strokeColor=#0080F0;shadow=0;dashed=0;shape=mxgraph.ios7.icons.heart;perimeterSpacing=0;" vertex="1" parent="1">
          <mxGeometry x="998" y="192" width="8" height="8" as="geometry" />
        </mxCell>
        <mxCell id="0yMn6RcTjmXR4WvA116v-106" value="&lt;div style=&quot;&quot;&gt;&lt;font color=&quot;#528bff&quot; size=&quot;1&quot; style=&quot;&quot;&gt;&lt;b style=&quot;font-size: 8px;&quot;&gt;12 998 руб.&lt;/b&gt;&lt;/font&gt;&lt;/div&gt;" style="rounded=1;whiteSpace=wrap;html=1;align=left;strokeColor=none;arcSize=29;" vertex="1" parent="1">
          <mxGeometry x="952" y="233" width="50" height="10" as="geometry" />
        </mxCell>
        <mxCell id="0yMn6RcTjmXR4WvA116v-107" value="&lt;font size=&quot;1&quot; style=&quot;&quot;&gt;&lt;b style=&quot;font-size: 7px;&quot;&gt;Жилье № 2&amp;nbsp; &amp;nbsp;&amp;nbsp;&lt;/b&gt;&lt;/font&gt;&lt;div style=&quot;&quot;&gt;&lt;font style=&quot;font-size: 6px;&quot;&gt;&amp;nbsp;5 км от центра&lt;/font&gt;&lt;/div&gt;&lt;div style=&quot;&quot;&gt;&lt;font style=&quot;font-size: 6px;&quot;&gt;3 ночи:&lt;/font&gt;&lt;/div&gt;&lt;div style=&quot;&quot;&gt;&lt;font style=&quot;font-size: 6px;&quot;&gt;&lt;br&gt;&lt;/font&gt;&lt;/div&gt;" style="rounded=1;whiteSpace=wrap;html=1;align=left;strokeColor=none;arcSize=29;" vertex="1" parent="1">
          <mxGeometry x="955" y="260" width="50" height="50" as="geometry" />
        </mxCell>
        <mxCell id="0yMn6RcTjmXR4WvA116v-108" value="&lt;div style=&quot;&quot;&gt;&lt;font color=&quot;#528bff&quot; size=&quot;1&quot; style=&quot;&quot;&gt;&lt;b style=&quot;font-size: 8px;&quot;&gt;14 708 руб.&lt;/b&gt;&lt;/font&gt;&lt;/div&gt;" style="rounded=1;whiteSpace=wrap;html=1;align=left;strokeColor=none;arcSize=29;" vertex="1" parent="1">
          <mxGeometry x="955" y="301" width="50" height="10" as="geometry" />
        </mxCell>
        <mxCell id="0yMn6RcTjmXR4WvA116v-110" value="" style="edgeStyle=elbowEdgeStyle;elbow=vertical;endArrow=classic;html=1;curved=0;rounded=0;endSize=8;startSize=8;exitX=0.999;exitY=0.625;exitDx=0;exitDy=0;exitPerimeter=0;" edge="1" parent="1" source="0yMn6RcTjmXR4WvA116v-4" target="0yMn6RcTjmXR4WvA116v-56">
          <mxGeometry width="50" height="50" relative="1" as="geometry">
            <mxPoint x="119.99500000000013" y="168.91999999999996" as="sourcePoint" />
            <mxPoint x="200" y="220" as="targetPoint" />
            <Array as="points">
              <mxPoint x="230" y="220" />
            </Array>
          </mxGeometry>
        </mxCell>
        <mxCell id="0yMn6RcTjmXR4WvA116v-143" value="тап" style="edgeLabel;html=1;align=center;verticalAlign=middle;resizable=0;points=[];" vertex="1" connectable="0" parent="0yMn6RcTjmXR4WvA116v-110">
          <mxGeometry x="0.1146" y="1" relative="1" as="geometry">
            <mxPoint as="offset" />
          </mxGeometry>
        </mxCell>
        <mxCell id="0yMn6RcTjmXR4WvA116v-114" value="" style="edgeStyle=segmentEdgeStyle;endArrow=classic;html=1;curved=0;rounded=0;endSize=8;startSize=8;" edge="1" parent="1" source="0yMn6RcTjmXR4WvA116v-82" target="0yMn6RcTjmXR4WvA116v-84">
          <mxGeometry width="50" height="50" relative="1" as="geometry">
            <mxPoint x="820" y="300" as="sourcePoint" />
            <mxPoint x="870" y="170" as="targetPoint" />
            <Array as="points">
              <mxPoint x="870" y="270" />
              <mxPoint x="870" y="175" />
            </Array>
          </mxGeometry>
        </mxCell>
        <mxCell id="0yMn6RcTjmXR4WvA116v-197" value="тап" style="edgeLabel;html=1;align=center;verticalAlign=middle;resizable=0;points=[];" vertex="1" connectable="0" parent="0yMn6RcTjmXR4WvA116v-114">
          <mxGeometry x="-0.7172" y="-1" relative="1" as="geometry">
            <mxPoint x="1" y="6" as="offset" />
          </mxGeometry>
        </mxCell>
        <mxCell id="0yMn6RcTjmXR4WvA116v-115" value="1. Настройка ЛК" style="rounded=1;whiteSpace=wrap;html=1;strokeColor=none;" vertex="1" parent="1">
          <mxGeometry x="30" y="10" width="120" height="40" as="geometry" />
        </mxCell>
        <mxCell id="0yMn6RcTjmXR4WvA116v-119" value="" style="rounded=1;whiteSpace=wrap;html=1;rotation=90;" vertex="1" parent="1">
          <mxGeometry x="140" y="447" width="245.72" height="148.32" as="geometry" />
        </mxCell>
        <mxCell id="0yMn6RcTjmXR4WvA116v-121" value="Валюта" style="rounded=1;whiteSpace=wrap;html=1;arcSize=50;fillColor=default;strokeColor=none;" vertex="1" parent="1">
          <mxGeometry x="205.36" y="407" width="115" height="30" as="geometry" />
        </mxCell>
        <mxCell id="0yMn6RcTjmXR4WvA116v-124" value="" style="endArrow=none;html=1;rounded=0;entryX=0.817;entryY=0.007;entryDx=0;entryDy=0;entryPerimeter=0;" edge="1" parent="1" target="0yMn6RcTjmXR4WvA116v-119">
          <mxGeometry width="50" height="50" relative="1" as="geometry">
            <mxPoint x="188.03" y="599" as="sourcePoint" />
            <mxPoint x="328.03" y="597" as="targetPoint" />
          </mxGeometry>
        </mxCell>
        <mxCell id="0yMn6RcTjmXR4WvA116v-125" value="" style="html=1;verticalLabelPosition=bottom;align=center;labelBackgroundColor=#ffffff;verticalAlign=top;strokeWidth=2;strokeColor=#0080F0;shadow=0;dashed=0;shape=mxgraph.ios7.icons.heart;" vertex="1" parent="1">
          <mxGeometry x="248.02999999999997" y="607" width="30.599999999999998" height="27.3" as="geometry" />
        </mxCell>
        <mxCell id="0yMn6RcTjmXR4WvA116v-126" value="" style="html=1;verticalLabelPosition=bottom;align=center;labelBackgroundColor=#ffffff;verticalAlign=top;strokeWidth=2;strokeColor=#0080F0;shadow=0;dashed=0;shape=mxgraph.ios7.icons.looking_glass;" vertex="1" parent="1">
          <mxGeometry x="198.03" y="607" width="30" height="30" as="geometry" />
        </mxCell>
        <mxCell id="0yMn6RcTjmXR4WvA116v-127" value="" style="html=1;verticalLabelPosition=bottom;align=center;labelBackgroundColor=#ffffff;verticalAlign=top;strokeWidth=2;strokeColor=#0080F0;shadow=0;dashed=0;shape=mxgraph.ios7.icons.user;" vertex="1" parent="1">
          <mxGeometry x="298.03" y="607" width="30" height="30" as="geometry" />
        </mxCell>
        <mxCell id="0yMn6RcTjmXR4WvA116v-128" value="" style="shape=rect;fillColor=none;strokeColor=none;" vertex="1" parent="1">
          <mxGeometry x="200" y="437" width="130" height="20" as="geometry" />
        </mxCell>
        <mxCell id="0yMn6RcTjmXR4WvA116v-129" value="" style="html=1;strokeWidth=1;shadow=0;dashed=0;shape=mxgraph.ios7ui.marginRect;rx=3;ry=3;rectMargin=5;strokeColor=none;" vertex="1" parent="0yMn6RcTjmXR4WvA116v-128">
          <mxGeometry width="130" height="20" as="geometry" />
        </mxCell>
        <mxCell id="0yMn6RcTjmXR4WvA116v-130" value="Search" style="shape=mxgraph.ios7.icons.looking_glass;strokeColor=#e0e0e0;fillColor=none;fontColor=#e0e0e0;labelPosition=right;verticalLabelPosition=middle;align=left;verticalAlign=middle;fontSize=6;fontStyle=0;spacingTop=2;sketch=0;html=1;" vertex="1" parent="0yMn6RcTjmXR4WvA116v-128">
          <mxGeometry x="0.5" y="0.5" width="6" height="6" relative="1" as="geometry">
            <mxPoint x="-17" y="-3" as="offset" />
          </mxGeometry>
        </mxCell>
        <mxCell id="0yMn6RcTjmXR4WvA116v-131" value="" style="rounded=1;whiteSpace=wrap;html=1;fontSize=10;" vertex="1" parent="0yMn6RcTjmXR4WvA116v-128">
          <mxGeometry width="130" height="20" as="geometry" />
        </mxCell>
        <mxCell id="0yMn6RcTjmXR4WvA116v-132" value="" style="html=1;verticalLabelPosition=bottom;align=center;labelBackgroundColor=#ffffff;verticalAlign=top;strokeWidth=2;strokeColor=#0080F0;shadow=0;dashed=0;shape=mxgraph.ios7.icons.looking_glass;" vertex="1" parent="0yMn6RcTjmXR4WvA116v-128">
          <mxGeometry x="9" y="4" width="11.97" height="10" as="geometry" />
        </mxCell>
        <mxCell id="0yMn6RcTjmXR4WvA116v-137" value="&lt;font style=&quot;font-size: 11px;&quot;&gt;Russian Ru&lt;/font&gt;" style="rounded=1;whiteSpace=wrap;html=1;strokeColor=none;fontColor=#000000;fillColor=none;fontStyle=1" vertex="1" parent="0yMn6RcTjmXR4WvA116v-128">
          <mxGeometry x="25" width="90" height="20" as="geometry" />
        </mxCell>
        <mxCell id="0yMn6RcTjmXR4WvA116v-133" value="" style="html=1;verticalLabelPosition=bottom;labelBackgroundColor=#ffffff;verticalAlign=top;shadow=0;dashed=0;strokeWidth=2;shape=mxgraph.ios7.misc.scroll_(vertical);fillColor=#a0a0a0;" vertex="1" parent="1">
          <mxGeometry x="321" y="465" width="6" height="50" as="geometry" />
        </mxCell>
        <mxCell id="0yMn6RcTjmXR4WvA116v-134" value="Russian Ruble" style="rounded=1;whiteSpace=wrap;html=1;strokeColor=none;fontColor=#000000;fillColor=none;" vertex="1" parent="1">
          <mxGeometry x="197" y="468" width="100" height="20" as="geometry" />
        </mxCell>
        <mxCell id="0yMn6RcTjmXR4WvA116v-138" value="" style="endArrow=classic;html=1;rounded=0;exitX=0.608;exitY=1.009;exitDx=0;exitDy=0;exitPerimeter=0;entryX=0.013;entryY=0.654;entryDx=0;entryDy=0;entryPerimeter=0;" edge="1" parent="1" source="0yMn6RcTjmXR4WvA116v-4" target="0yMn6RcTjmXR4WvA116v-128">
          <mxGeometry width="50" height="50" relative="1" as="geometry">
            <mxPoint x="110" y="230" as="sourcePoint" />
            <mxPoint x="170" y="370" as="targetPoint" />
            <Array as="points">
              <mxPoint x="101" y="240" />
              <mxPoint x="140" y="240" />
              <mxPoint x="180" y="240" />
              <mxPoint x="180" y="450" />
            </Array>
          </mxGeometry>
        </mxCell>
        <mxCell id="0yMn6RcTjmXR4WvA116v-144" value="тап" style="edgeLabel;html=1;align=center;verticalAlign=middle;resizable=0;points=[];" vertex="1" connectable="0" parent="0yMn6RcTjmXR4WvA116v-138">
          <mxGeometry x="-0.4958" relative="1" as="geometry">
            <mxPoint as="offset" />
          </mxGeometry>
        </mxCell>
        <mxCell id="0yMn6RcTjmXR4WvA116v-139" value="2. Выбор валюты (скролинг)" style="rounded=1;whiteSpace=wrap;html=1;strokeColor=none;" vertex="1" parent="1">
          <mxGeometry x="200" y="10" width="120" height="40" as="geometry" />
        </mxCell>
        <mxCell id="0yMn6RcTjmXR4WvA116v-140" value="просмотр&amp;nbsp;&lt;div&gt;доступных&amp;nbsp;&lt;/div&gt;&lt;div&gt;вариантов&lt;/div&gt;" style="endArrow=classic;startArrow=classic;html=1;rounded=0;" edge="1" parent="1">
          <mxGeometry width="50" height="50" relative="1" as="geometry">
            <mxPoint x="370" y="230" as="sourcePoint" />
            <mxPoint x="370" y="110" as="targetPoint" />
          </mxGeometry>
        </mxCell>
        <mxCell id="0yMn6RcTjmXR4WvA116v-142" value="поиск через&amp;nbsp;&lt;div&gt;строку ввода&lt;/div&gt;" style="endArrow=classic;html=1;rounded=0;" edge="1" parent="1">
          <mxGeometry x="1" y="20" width="50" height="50" relative="1" as="geometry">
            <mxPoint x="330" y="447" as="sourcePoint" />
            <mxPoint x="355" y="447" as="targetPoint" />
            <mxPoint x="20" y="20" as="offset" />
          </mxGeometry>
        </mxCell>
        <mxCell id="0yMn6RcTjmXR4WvA116v-146" value="" style="rounded=1;whiteSpace=wrap;html=1;rotation=90;" vertex="1" parent="1">
          <mxGeometry x="398" y="98" width="245.72" height="148.32" as="geometry" />
        </mxCell>
        <mxCell id="0yMn6RcTjmXR4WvA116v-147" value="" style="html=1;verticalLabelPosition=bottom;align=center;labelBackgroundColor=#0080f0;verticalAlign=top;strokeWidth=2;strokeColor=#0080F0;shadow=0;dashed=0;shape=mxgraph.ios7.icons.select;" vertex="1" parent="1">
          <mxGeometry x="553" y="205" width="19" height="20" as="geometry" />
        </mxCell>
        <mxCell id="0yMn6RcTjmXR4WvA116v-148" value="Валюта" style="rounded=1;whiteSpace=wrap;html=1;arcSize=50;fillColor=default;strokeColor=none;" vertex="1" parent="1">
          <mxGeometry x="463.36" y="58" width="115" height="30" as="geometry" />
        </mxCell>
        <mxCell id="0yMn6RcTjmXR4WvA116v-149" value="U.S. Dollar" style="rounded=1;whiteSpace=wrap;html=1;strokeColor=none;" vertex="1" parent="1">
          <mxGeometry x="457.86" y="140" width="77.14" height="20" as="geometry" />
        </mxCell>
        <mxCell id="0yMn6RcTjmXR4WvA116v-150" value="" style="endArrow=none;html=1;rounded=0;entryX=0.817;entryY=0.007;entryDx=0;entryDy=0;entryPerimeter=0;" edge="1" parent="1" target="0yMn6RcTjmXR4WvA116v-146">
          <mxGeometry width="50" height="50" relative="1" as="geometry">
            <mxPoint x="446.03" y="250" as="sourcePoint" />
            <mxPoint x="586.03" y="248" as="targetPoint" />
          </mxGeometry>
        </mxCell>
        <mxCell id="0yMn6RcTjmXR4WvA116v-151" value="" style="html=1;verticalLabelPosition=bottom;align=center;labelBackgroundColor=#ffffff;verticalAlign=top;strokeWidth=2;strokeColor=#0080F0;shadow=0;dashed=0;shape=mxgraph.ios7.icons.heart;" vertex="1" parent="1">
          <mxGeometry x="506.03" y="258" width="30.599999999999998" height="27.3" as="geometry" />
        </mxCell>
        <mxCell id="0yMn6RcTjmXR4WvA116v-152" value="" style="html=1;verticalLabelPosition=bottom;align=center;labelBackgroundColor=#ffffff;verticalAlign=top;strokeWidth=2;strokeColor=#0080F0;shadow=0;dashed=0;shape=mxgraph.ios7.icons.looking_glass;" vertex="1" parent="1">
          <mxGeometry x="456.03" y="258" width="30" height="30" as="geometry" />
        </mxCell>
        <mxCell id="0yMn6RcTjmXR4WvA116v-153" value="" style="html=1;verticalLabelPosition=bottom;align=center;labelBackgroundColor=#ffffff;verticalAlign=top;strokeWidth=2;strokeColor=#0080F0;shadow=0;dashed=0;shape=mxgraph.ios7.icons.user;" vertex="1" parent="1">
          <mxGeometry x="556.03" y="258" width="30" height="30" as="geometry" />
        </mxCell>
        <mxCell id="0yMn6RcTjmXR4WvA116v-154" value="" style="shape=rect;fillColor=#e0e0e0;strokeColor=none;" vertex="1" parent="1">
          <mxGeometry x="458" y="88" width="130" height="20" as="geometry" />
        </mxCell>
        <mxCell id="0yMn6RcTjmXR4WvA116v-155" value="" style="html=1;strokeWidth=1;shadow=0;dashed=0;shape=mxgraph.ios7ui.marginRect;rx=3;ry=3;rectMargin=5;strokeColor=none;" vertex="1" parent="0yMn6RcTjmXR4WvA116v-154">
          <mxGeometry width="130" height="20" as="geometry" />
        </mxCell>
        <mxCell id="0yMn6RcTjmXR4WvA116v-156" value="Search" style="shape=mxgraph.ios7.icons.looking_glass;strokeColor=#e0e0e0;fillColor=none;fontColor=#e0e0e0;labelPosition=right;verticalLabelPosition=middle;align=left;verticalAlign=middle;fontSize=6;fontStyle=0;spacingTop=2;sketch=0;html=1;" vertex="1" parent="0yMn6RcTjmXR4WvA116v-154">
          <mxGeometry x="0.5" y="0.5" width="6" height="6" relative="1" as="geometry">
            <mxPoint x="-17" y="-3" as="offset" />
          </mxGeometry>
        </mxCell>
        <mxCell id="0yMn6RcTjmXR4WvA116v-157" value="&lt;span style=&quot;font-size: 10px;&quot;&gt;&lt;b&gt;Поиск валюты&lt;/b&gt;&lt;/span&gt;" style="rounded=1;whiteSpace=wrap;html=1;fontSize=10;" vertex="1" parent="0yMn6RcTjmXR4WvA116v-154">
          <mxGeometry width="130" height="20" as="geometry" />
        </mxCell>
        <mxCell id="0yMn6RcTjmXR4WvA116v-158" value="" style="html=1;verticalLabelPosition=bottom;align=center;labelBackgroundColor=#ffffff;verticalAlign=top;strokeWidth=2;strokeColor=#0080F0;shadow=0;dashed=0;shape=mxgraph.ios7.icons.looking_glass;" vertex="1" parent="0yMn6RcTjmXR4WvA116v-154">
          <mxGeometry x="9" y="4" width="11.97" height="10" as="geometry" />
        </mxCell>
        <mxCell id="0yMn6RcTjmXR4WvA116v-159" value="" style="html=1;verticalLabelPosition=bottom;labelBackgroundColor=#ffffff;verticalAlign=top;shadow=0;dashed=0;strokeWidth=2;shape=mxgraph.ios7.misc.scroll_(vertical);fillColor=#a0a0a0;" vertex="1" parent="1">
          <mxGeometry x="578" y="138" width="6" height="50" as="geometry" />
        </mxCell>
        <mxCell id="0yMn6RcTjmXR4WvA116v-160" value="Russian Ruble" style="rounded=1;whiteSpace=wrap;html=1;strokeColor=none;fontColor=#2164FF;fillColor=none;" vertex="1" parent="1">
          <mxGeometry x="463" y="206" width="90" height="20" as="geometry" />
        </mxCell>
        <mxCell id="0yMn6RcTjmXR4WvA116v-161" value="&amp;nbsp;Pound Sterling" style="rounded=1;whiteSpace=wrap;html=1;strokeColor=none;" vertex="1" parent="1">
          <mxGeometry x="455" y="162" width="100" height="20" as="geometry" />
        </mxCell>
        <mxCell id="0yMn6RcTjmXR4WvA116v-162" value="Korean Won&amp;nbsp; &amp;nbsp;" style="rounded=1;whiteSpace=wrap;html=1;strokeColor=none;" vertex="1" parent="1">
          <mxGeometry x="457" y="184" width="100" height="20" as="geometry" />
        </mxCell>
        <mxCell id="0yMn6RcTjmXR4WvA116v-163" value="просмотр&amp;nbsp;&lt;div&gt;доступных&amp;nbsp;&lt;/div&gt;&lt;div&gt;вариантов&lt;/div&gt;" style="endArrow=classic;startArrow=classic;html=1;rounded=0;" edge="1" parent="1">
          <mxGeometry width="50" height="50" relative="1" as="geometry">
            <mxPoint x="628" y="240" as="sourcePoint" />
            <mxPoint x="628" y="110" as="targetPoint" />
          </mxGeometry>
        </mxCell>
        <mxCell id="0yMn6RcTjmXR4WvA116v-164" value="&amp;nbsp; &amp;nbsp; &amp;nbsp;Euro" style="rounded=1;whiteSpace=wrap;html=1;strokeColor=none;fillColor=none;" vertex="1" parent="1">
          <mxGeometry x="434" y="120" width="77.14" height="20" as="geometry" />
        </mxCell>
        <mxCell id="0yMn6RcTjmXR4WvA116v-165" value="тап&lt;br&gt;меняет цвет на&lt;div&gt;синий и галочка&lt;/div&gt;" style="endArrow=classic;html=1;rounded=0;" edge="1" parent="1">
          <mxGeometry x="0.0667" y="-29" width="50" height="50" relative="1" as="geometry">
            <mxPoint x="262" y="231" as="sourcePoint" />
            <mxPoint x="472" y="221" as="targetPoint" />
            <Array as="points">
              <mxPoint x="262" y="241" />
              <mxPoint x="412" y="241" />
              <mxPoint x="455" y="241" />
              <mxPoint x="472" y="241" />
            </Array>
            <mxPoint as="offset" />
          </mxGeometry>
        </mxCell>
        <mxCell id="0yMn6RcTjmXR4WvA116v-167" value="" style="rounded=1;whiteSpace=wrap;html=1;rotation=90;" vertex="1" parent="1">
          <mxGeometry x="410" y="456" width="245.72" height="148.32" as="geometry" />
        </mxCell>
        <mxCell id="0yMn6RcTjmXR4WvA116v-168" value="" style="html=1;verticalLabelPosition=bottom;align=center;labelBackgroundColor=#0080f0;verticalAlign=top;strokeWidth=2;strokeColor=#0080F0;shadow=0;dashed=0;shape=mxgraph.ios7.icons.select;" vertex="1" parent="1">
          <mxGeometry x="562" y="476" width="19" height="20" as="geometry" />
        </mxCell>
        <mxCell id="0yMn6RcTjmXR4WvA116v-169" value="Валюта" style="rounded=1;whiteSpace=wrap;html=1;arcSize=50;fillColor=default;strokeColor=none;" vertex="1" parent="1">
          <mxGeometry x="475.36" y="416" width="115" height="30" as="geometry" />
        </mxCell>
        <mxCell id="0yMn6RcTjmXR4WvA116v-170" value="" style="html=1;verticalLabelPosition=bottom;align=center;labelBackgroundColor=#ffffff;verticalAlign=top;strokeWidth=2;strokeColor=#0080F0;shadow=0;dashed=0;shape=mxgraph.ios7.icons.heart;" vertex="1" parent="1">
          <mxGeometry x="518.03" y="616" width="30.599999999999998" height="27.3" as="geometry" />
        </mxCell>
        <mxCell id="0yMn6RcTjmXR4WvA116v-171" value="" style="html=1;verticalLabelPosition=bottom;align=center;labelBackgroundColor=#ffffff;verticalAlign=top;strokeWidth=2;strokeColor=#0080F0;shadow=0;dashed=0;shape=mxgraph.ios7.icons.looking_glass;" vertex="1" parent="1">
          <mxGeometry x="468.03" y="616" width="30" height="30" as="geometry" />
        </mxCell>
        <mxCell id="0yMn6RcTjmXR4WvA116v-172" value="" style="html=1;verticalLabelPosition=bottom;align=center;labelBackgroundColor=#ffffff;verticalAlign=top;strokeWidth=2;strokeColor=#0080F0;shadow=0;dashed=0;shape=mxgraph.ios7.icons.user;" vertex="1" parent="1">
          <mxGeometry x="568.03" y="616" width="30" height="30" as="geometry" />
        </mxCell>
        <mxCell id="0yMn6RcTjmXR4WvA116v-173" value="" style="shape=rect;fillColor=none;strokeColor=none;" vertex="1" parent="1">
          <mxGeometry x="470" y="446" width="130" height="20" as="geometry" />
        </mxCell>
        <mxCell id="0yMn6RcTjmXR4WvA116v-174" value="" style="html=1;strokeWidth=1;shadow=0;dashed=0;shape=mxgraph.ios7ui.marginRect;rx=3;ry=3;rectMargin=5;strokeColor=none;" vertex="1" parent="0yMn6RcTjmXR4WvA116v-173">
          <mxGeometry width="130" height="20" as="geometry" />
        </mxCell>
        <mxCell id="0yMn6RcTjmXR4WvA116v-175" value="Search" style="shape=mxgraph.ios7.icons.looking_glass;strokeColor=#e0e0e0;fillColor=none;fontColor=#e0e0e0;labelPosition=right;verticalLabelPosition=middle;align=left;verticalAlign=middle;fontSize=6;fontStyle=0;spacingTop=2;sketch=0;html=1;" vertex="1" parent="0yMn6RcTjmXR4WvA116v-173">
          <mxGeometry x="0.5" y="0.5" width="6" height="6" relative="1" as="geometry">
            <mxPoint x="-17" y="-3" as="offset" />
          </mxGeometry>
        </mxCell>
        <mxCell id="0yMn6RcTjmXR4WvA116v-176" value="" style="rounded=1;whiteSpace=wrap;html=1;fontSize=10;" vertex="1" parent="0yMn6RcTjmXR4WvA116v-173">
          <mxGeometry width="130" height="20" as="geometry" />
        </mxCell>
        <mxCell id="0yMn6RcTjmXR4WvA116v-177" value="" style="html=1;verticalLabelPosition=bottom;align=center;labelBackgroundColor=#ffffff;verticalAlign=top;strokeWidth=2;strokeColor=#0080F0;shadow=0;dashed=0;shape=mxgraph.ios7.icons.looking_glass;" vertex="1" parent="0yMn6RcTjmXR4WvA116v-173">
          <mxGeometry x="9" y="4" width="11.97" height="10" as="geometry" />
        </mxCell>
        <mxCell id="0yMn6RcTjmXR4WvA116v-178" value="&lt;font style=&quot;font-size: 11px;&quot;&gt;Russian Ru&lt;/font&gt;" style="rounded=1;whiteSpace=wrap;html=1;strokeColor=none;fontColor=#000000;fillColor=none;fontStyle=1" vertex="1" parent="0yMn6RcTjmXR4WvA116v-173">
          <mxGeometry x="25" width="90" height="20" as="geometry" />
        </mxCell>
        <mxCell id="0yMn6RcTjmXR4WvA116v-179" value="" style="html=1;verticalLabelPosition=bottom;labelBackgroundColor=#ffffff;verticalAlign=top;shadow=0;dashed=0;strokeWidth=2;shape=mxgraph.ios7.misc.scroll_(vertical);fillColor=#a0a0a0;" vertex="1" parent="1">
          <mxGeometry x="591" y="474" width="6" height="50" as="geometry" />
        </mxCell>
        <mxCell id="0yMn6RcTjmXR4WvA116v-180" value="Russian Ruble" style="rounded=1;whiteSpace=wrap;html=1;strokeColor=none;fontColor=#2164FF;fillColor=none;" vertex="1" parent="1">
          <mxGeometry x="467" y="477" width="100" height="20" as="geometry" />
        </mxCell>
        <mxCell id="0yMn6RcTjmXR4WvA116v-184" value="2.. Подтверждение выбора валюты" style="rounded=1;whiteSpace=wrap;html=1;strokeColor=none;" vertex="1" parent="1">
          <mxGeometry x="458" y="9" width="120" height="40" as="geometry" />
        </mxCell>
        <mxCell id="0yMn6RcTjmXR4WvA116v-185" value="2. Выбор валюты (через строку ввода)" style="rounded=1;whiteSpace=wrap;html=1;strokeColor=none;" vertex="1" parent="1">
          <mxGeometry x="200" y="356" width="120" height="40" as="geometry" />
        </mxCell>
        <mxCell id="0yMn6RcTjmXR4WvA116v-189" value="тап&lt;br&gt;меняет цвет на&lt;div&gt;синий и галочка&lt;/div&gt;" style="endArrow=classic;html=1;rounded=0;entryX=0.03;entryY=0.95;entryDx=0;entryDy=0;entryPerimeter=0;" edge="1" parent="1" target="0yMn6RcTjmXR4WvA116v-180">
          <mxGeometry x="0.2727" y="-10" width="50" height="50" relative="1" as="geometry">
            <mxPoint x="260" y="486" as="sourcePoint" />
            <mxPoint x="500" y="486" as="targetPoint" />
            <Array as="points">
              <mxPoint x="260" y="496" />
              <mxPoint x="410" y="496" />
              <mxPoint x="453" y="496" />
              <mxPoint x="470" y="496" />
            </Array>
            <mxPoint as="offset" />
          </mxGeometry>
        </mxCell>
        <mxCell id="0yMn6RcTjmXR4WvA116v-190" value="2. Подтверждение выбора валюты" style="rounded=1;whiteSpace=wrap;html=1;strokeColor=none;" vertex="1" parent="1">
          <mxGeometry x="468" y="365" width="120" height="40" as="geometry" />
        </mxCell>
        <mxCell id="0yMn6RcTjmXR4WvA116v-191" value="" style="endArrow=classic;html=1;rounded=0;exitX=0.207;exitY=0.733;exitDx=0;exitDy=0;exitPerimeter=0;entryX=0.402;entryY=1.003;entryDx=0;entryDy=0;entryPerimeter=0;" edge="1" parent="1" source="0yMn6RcTjmXR4WvA116v-152" target="0yMn6RcTjmXR4WvA116v-59">
          <mxGeometry width="50" height="50" relative="1" as="geometry">
            <mxPoint x="470" y="320" as="sourcePoint" />
            <mxPoint x="680" y="320" as="targetPoint" />
            <Array as="points">
              <mxPoint x="462" y="320" />
              <mxPoint x="660" y="320" />
              <mxPoint x="660" y="250" />
            </Array>
          </mxGeometry>
        </mxCell>
        <mxCell id="0yMn6RcTjmXR4WvA116v-192" value="тап на значок поиск&lt;div&gt;переход на страницу поиска&lt;/div&gt;" style="edgeLabel;html=1;align=center;verticalAlign=middle;resizable=0;points=[];" vertex="1" connectable="0" parent="0yMn6RcTjmXR4WvA116v-191">
          <mxGeometry x="-0.2231" y="2" relative="1" as="geometry">
            <mxPoint as="offset" />
          </mxGeometry>
        </mxCell>
        <mxCell id="0yMn6RcTjmXR4WvA116v-193" value="" style="endArrow=classic;html=1;rounded=0;exitX=0.399;exitY=0.8;exitDx=0;exitDy=0;exitPerimeter=0;entryX=1.012;entryY=0.856;entryDx=0;entryDy=0;entryPerimeter=0;" edge="1" parent="1" source="0yMn6RcTjmXR4WvA116v-171" target="0yMn6RcTjmXR4WvA116v-59">
          <mxGeometry width="50" height="50" relative="1" as="geometry">
            <mxPoint x="480" y="690" as="sourcePoint" />
            <mxPoint x="790" y="690" as="targetPoint" />
            <Array as="points">
              <mxPoint x="480" y="690" />
              <mxPoint x="720" y="690" />
              <mxPoint x="720" y="470" />
            </Array>
          </mxGeometry>
        </mxCell>
        <mxCell id="0yMn6RcTjmXR4WvA116v-194" value="тап на значок поиска,&lt;div&gt;&amp;nbsp;переход на страницу поиска&lt;/div&gt;" style="edgeLabel;html=1;align=center;verticalAlign=middle;resizable=0;points=[];" vertex="1" connectable="0" parent="0yMn6RcTjmXR4WvA116v-193">
          <mxGeometry x="-0.3828" y="-3" relative="1" as="geometry">
            <mxPoint as="offset" />
          </mxGeometry>
        </mxCell>
        <mxCell id="0yMn6RcTjmXR4WvA116v-195" value="3.. Поиск жилья (ввели параментры)" style="rounded=1;whiteSpace=wrap;html=1;strokeColor=none;" vertex="1" parent="1">
          <mxGeometry x="710" y="110" width="120" height="40" as="geometry" />
        </mxCell>
        <mxCell id="0yMn6RcTjmXR4WvA116v-196" value="просмотр доступных вариантов,&amp;nbsp;&lt;div&gt;ключевая информация&amp;nbsp;&lt;/div&gt;&lt;div&gt;о каждом варианте&lt;/div&gt;" style="endArrow=classic;startArrow=classic;html=1;rounded=0;" edge="1" parent="1">
          <mxGeometry x="0.1429" y="-70" width="50" height="50" relative="1" as="geometry">
            <mxPoint x="1050" y="340" as="sourcePoint" />
            <mxPoint x="1050" y="200" as="targetPoint" />
            <mxPoint as="offset" />
          </mxGeometry>
        </mxCell>
        <mxCell id="0yMn6RcTjmXR4WvA116v-198" value="" style="html=1;verticalLabelPosition=bottom;align=center;labelBackgroundColor=#ffffff;verticalAlign=top;strokeWidth=1;strokeColor=#0080F0;shadow=0;dashed=0;shape=mxgraph.ios7.icons.heart;perimeterSpacing=0;" vertex="1" parent="1">
          <mxGeometry x="1000" y="260" width="8" height="8" as="geometry" />
        </mxCell>
        <mxCell id="0yMn6RcTjmXR4WvA116v-199" value="" style="endArrow=classic;html=1;rounded=0;" edge="1" parent="1">
          <mxGeometry width="50" height="50" relative="1" as="geometry">
            <mxPoint x="1001" y="307" as="sourcePoint" />
            <mxPoint x="1091" y="307" as="targetPoint" />
            <Array as="points">
              <mxPoint x="1061" y="307" />
            </Array>
          </mxGeometry>
        </mxCell>
        <mxCell id="0yMn6RcTjmXR4WvA116v-200" value="цена указана в рублях" style="rounded=1;whiteSpace=wrap;html=1;strokeColor=none;" vertex="1" parent="1">
          <mxGeometry x="1093" y="300" width="60" height="40" as="geometry" />
        </mxCell>
        <mxCell id="0yMn6RcTjmXR4WvA116v-201" value="4.. Результат поиска по заданным параметрам" style="rounded=1;whiteSpace=wrap;html=1;strokeColor=none;" vertex="1" parent="1">
          <mxGeometry x="890" y="110" width="120" height="40" as="geometry" />
        </mxCell>
        <mxCell id="0yMn6RcTjmXR4WvA116v-203" value="Я как пользователь приложения для бронирования жилья по всему миру Booking, хочу видеть&lt;br style=&quot;font-size: 15px;&quot;&gt;стоимость бронирования жилья в валюте своей страны по курсу Центробанка на этот день, чтобы&lt;br style=&quot;font-size: 15px;&quot;&gt;понимать стоимость бронирования." style="rounded=1;whiteSpace=wrap;html=1;fontSize=15;" vertex="1" parent="1">
          <mxGeometry x="820" y="510" width="700" height="130" as="geometry" />
        </mxCell>
        <mxCell id="0yMn6RcTjmXR4WvA116v-204" value="USER STORY" style="text;html=1;align=center;verticalAlign=middle;resizable=0;points=[];autosize=1;strokeColor=none;fillColor=none;fontSize=21;" vertex="1" parent="1">
          <mxGeometry x="1070" y="465" width="160" height="40" as="geometry" />
        </mxCell>
      </root>
    </mxGraphModel>
  </diagram>
</mxfile>
